<svg width="112" height="28" viewBox="0 0 112 28" fill="none" xmlns="http://www.w3.org/2000/svg">
<g id="skilled">
<path id="Path" d="M8.892 27.6841C6.732 27.6841 4.854 27.1741 3.258 26.1541C1.662 25.1341 0.576 23.7601 0 22.0321L3.96 20.1601C4.464 21.2161 5.148 22.0441 6.012 22.6441C6.876 23.2441 7.836 23.5441 8.892 23.5441C9.66 23.5441 10.248 23.3881 10.656 23.0761C11.064 22.7641 11.268 22.3321 11.268 21.7801C11.268 21.4921 11.196 21.2461 11.052 21.0421C10.908 20.8381 10.692 20.6521 10.404 20.4841C10.116 20.3161 9.756 20.1721 9.324 20.0521L5.976 19.1161C4.368 18.6601 3.132 17.9221 2.268 16.9021C1.404 15.8821 0.972 14.6761 0.972 13.2841C0.972 12.0601 1.284 10.9921 1.908 10.0801C2.532 9.16806 3.408 8.45406 4.536 7.93806C5.664 7.42206 6.96 7.16406 8.424 7.16406C10.344 7.16406 12.03 7.61406 13.482 8.51406C14.934 9.41406 15.96 10.6801 16.56 12.3121L12.564 14.1841C12.276 13.3681 11.754 12.7141 10.998 12.2221C10.242 11.7301 9.384 11.4841 8.424 11.4841C7.728 11.4841 7.182 11.6281 6.786 11.9161C6.39 12.2041 6.192 12.6001 6.192 13.1041C6.192 13.3681 6.264 13.6081 6.408 13.8241C6.552 14.0401 6.786 14.2321 7.11 14.4001C7.434 14.5681 7.836 14.7241 8.316 14.8681L11.448 15.8041C13.08 16.2841 14.328 17.0101 15.192 17.9821C16.056 18.9541 16.488 20.1481 16.488 21.5641C16.488 22.7881 16.17 23.8561 15.534 24.7681C14.898 25.6801 14.016 26.3941 12.888 26.9101C11.76 27.4261 10.428 27.6841 8.892 27.6841Z" fill="white"/>
<path id="Path_2" d="M19.728 27.252V0H25.128V17.46L23.112 16.812L31.788 7.596H38.448L31.32 15.516L38.412 27.252H32.292L26.352 17.28L29.484 16.488L23.472 23.04L25.128 19.908V27.252H19.728Z" fill="white"/>
<path id="Shape" fill-rule="evenodd" clip-rule="evenodd" d="M40.824 0.431885V5.83188H46.224V0.431885H40.824ZM40.824 7.59588V27.2519H46.224V7.59588H40.824Z" fill="white"/>
<path id="Path_3" d="M50.1841 27.252V0H55.5841V27.252H50.1841Z" fill="white"/>
<path id="Path_4" d="M59.5439 27.252V0H64.9439V27.252H59.5439Z" fill="white"/>
<path id="Path_5" d="M78.3721 27.6841C76.2841 27.6841 74.4721 27.2221 72.9361 26.2981C71.4001 25.3741 70.2121 24.1321 69.3721 22.5721C68.5321 21.0121 68.1121 19.2841 68.1121 17.3881C68.1121 15.4201 68.5501 13.6681 69.4261 12.1321C70.3021 10.5961 71.4841 9.38406 72.9721 8.49606C74.4601 7.60806 76.1401 7.16406 78.0121 7.16406C79.5721 7.16406 80.9521 7.41006 82.1521 7.90206C83.3521 8.39406 84.3661 9.08406 85.1941 9.97206C86.0221 10.8601 86.6521 11.8861 87.0841 13.0501C87.5161 14.2141 87.7321 15.4801 87.7321 16.8481C87.7321 17.2321 87.7141 17.6101 87.6781 17.9821C87.6421 18.3541 87.5761 18.6721 87.4801 18.9361H72.7561V14.9761H84.4201L81.8641 16.8481C82.1041 15.8161 82.0921 14.8981 81.8281 14.0941C81.5641 13.2901 81.1021 12.6541 80.4421 12.1861C79.7821 11.7181 78.9721 11.4841 78.0121 11.4841C77.0761 11.4841 76.2721 11.7121 75.6001 12.1681C74.9281 12.6241 74.4241 13.2961 74.0881 14.1841C73.7521 15.0721 73.6201 16.1521 73.6921 17.4241C73.5961 18.5281 73.7281 19.5001 74.0881 20.3401C74.4481 21.1801 75.0001 21.8341 75.7441 22.3021C76.4881 22.7701 77.3881 23.0041 78.4441 23.0041C79.4041 23.0041 80.2261 22.8121 80.9101 22.4281C81.5941 22.0441 82.1281 21.5161 82.5121 20.8441L86.8321 22.8961C86.4481 23.8561 85.8421 24.6961 85.0141 25.4161C84.1861 26.1361 83.2081 26.6941 82.0801 27.0901C80.9521 27.4861 79.7161 27.6841 78.3721 27.6841Z" fill="white"/>
<path id="Shape_2" fill-rule="evenodd" clip-rule="evenodd" d="M95.0039 26.316C96.5159 27.228 98.2319 27.684 100.152 27.684C101.496 27.684 102.744 27.438 103.896 26.946C104.782 26.5676 105.526 26.0509 106.128 25.3957V27.252H111.168V0H105.768V9.24638C105.253 8.73556 104.647 8.31144 103.95 7.974C102.834 7.434 101.556 7.164 100.116 7.164C98.2439 7.164 96.5519 7.62 95.0399 8.532C93.5279 9.444 92.3279 10.674 91.4399 12.222C90.5519 13.77 90.1079 15.504 90.1079 17.424C90.1079 19.32 90.5459 21.048 91.4219 22.608C92.2979 24.168 93.4919 25.404 95.0039 26.316ZM103.392 22.14C102.648 22.596 101.784 22.824 100.8 22.824C99.8159 22.824 98.9339 22.596 98.1539 22.14C97.3739 21.684 96.7679 21.048 96.3359 20.232C95.9039 19.416 95.6879 18.48 95.6879 17.424C95.6879 16.368 95.9039 15.438 96.3359 14.634C96.7679 13.83 97.3739 13.194 98.1539 12.726C98.9339 12.258 99.8159 12.024 100.8 12.024C101.784 12.024 102.648 12.252 103.392 12.708C104.136 13.164 104.718 13.8 105.138 14.616C105.558 15.432 105.768 16.368 105.768 17.424C105.768 18.48 105.558 19.416 105.138 20.232C104.718 21.048 104.136 21.684 103.392 22.14Z" fill="white"/>
</g>
</svg>
