<svg width="110" height="28" viewBox="0 0 110 28" fill="none" xmlns="http://www.w3.org/2000/svg">
<g id="skilled">
<path id="Path" d="M8.892 27.6839C6.732 27.6839 4.854 27.1739 3.258 26.1539C1.662 25.1339 0.576 23.7599 0 22.0319L3.96 20.1599C4.464 21.2159 5.148 22.0439 6.012 22.6439C6.876 23.2439 7.836 23.5439 8.892 23.5439C9.66 23.5439 10.248 23.3879 10.656 23.0759C11.064 22.7639 11.268 22.3319 11.268 21.7799C11.268 21.4919 11.196 21.2459 11.052 21.0419C10.908 20.8379 10.692 20.6519 10.404 20.4839C10.116 20.3159 9.756 20.1719 9.324 20.0519L5.976 19.1159C4.368 18.6599 3.132 17.9219 2.268 16.9019C1.404 15.8819 0.972 14.6759 0.972 13.2839C0.972 12.0599 1.284 10.9919 1.908 10.0799C2.532 9.16794 3.408 8.45394 4.536 7.93794C5.664 7.42194 6.96 7.16394 8.424 7.16394C10.344 7.16394 12.03 7.61394 13.482 8.51394C14.934 9.41394 15.96 10.6799 16.56 12.3119L12.564 14.1839C12.276 13.3679 11.754 12.7139 10.998 12.2219C10.242 11.7299 9.384 11.4839 8.424 11.4839C7.728 11.4839 7.182 11.6279 6.786 11.9159C6.39 12.2039 6.192 12.5999 6.192 13.1039C6.192 13.3679 6.264 13.6079 6.408 13.8239C6.552 14.0399 6.786 14.2319 7.11 14.3999C7.434 14.5679 7.836 14.7239 8.316 14.8679L11.448 15.8039C13.08 16.2839 14.328 17.0099 15.192 17.9819C16.056 18.9539 16.488 20.1479 16.488 21.5639C16.488 22.7879 16.17 23.8559 15.534 24.7679C14.898 25.6799 14.016 26.3939 12.888 26.9099C11.76 27.4259 10.428 27.6839 8.892 27.6839Z" fill="#13183F"/>
<path id="Path_2" d="M19.728 27.252V0H25.128V17.46L23.112 16.812L31.788 7.596H38.448L31.32 15.516L38.412 27.252H32.292L26.352 17.28L29.484 16.488L23.472 23.04L25.128 19.908V27.252H19.728Z" fill="#13183F"/>
<path id="Shape" fill-rule="evenodd" clip-rule="evenodd" d="M40.824 0.432007V5.83201H46.224V0.432007H40.824ZM40.824 7.59601V27.252H46.224V7.59601H40.824Z" fill="#13183F"/>
<path id="Path_3" d="M50.1841 27.252V0H55.5841V27.252H50.1841Z" fill="#13183F"/>
<path id="Path_4" d="M59.5439 27.252V0H64.9439V27.252H59.5439Z" fill="#13183F"/>
<path id="Path_5" d="M78.3721 27.6839C76.2841 27.6839 74.4721 27.2219 72.9361 26.2979C71.4001 25.3739 70.2121 24.1319 69.3721 22.5719C68.5321 21.0119 68.1121 19.2839 68.1121 17.3879C68.1121 15.4199 68.5501 13.6679 69.4261 12.1319C70.3021 10.5959 71.4841 9.38394 72.9721 8.49594C74.4601 7.60794 76.1401 7.16394 78.0121 7.16394C79.5721 7.16394 80.9521 7.40994 82.1521 7.90194C83.3521 8.39394 84.3661 9.08394 85.1941 9.97194C86.0221 10.8599 86.6521 11.8859 87.0841 13.0499C87.5161 14.2139 87.7321 15.4799 87.7321 16.8479C87.7321 17.2319 87.7141 17.6099 87.6781 17.9819C87.6421 18.3539 87.5761 18.6719 87.4801 18.9359H72.7561V14.9759H84.4201L81.8641 16.8479C82.1041 15.8159 82.0921 14.8979 81.8281 14.0939C81.5641 13.2899 81.1021 12.6539 80.4421 12.1859C79.7821 11.7179 78.9721 11.4839 78.0121 11.4839C77.0761 11.4839 76.2721 11.7119 75.6001 12.1679C74.9281 12.6239 74.4241 13.2959 74.0881 14.1839C73.7521 15.0719 73.6201 16.1519 73.6921 17.4239C73.5961 18.5279 73.7281 19.4999 74.0881 20.3399C74.4481 21.1799 75.0001 21.8339 75.7441 22.3019C76.4881 22.7699 77.3881 23.0039 78.4441 23.0039C79.4041 23.0039 80.2261 22.8119 80.9101 22.4279C81.5941 22.0439 82.1281 21.5159 82.5121 20.8439L86.8321 22.8959C86.4481 23.8559 85.8421 24.6959 85.0141 25.4159C84.1861 26.1359 83.2081 26.6939 82.0801 27.0899C80.9521 27.4859 79.7161 27.6839 78.3721 27.6839Z" fill="#13183F"/>
<path id="Shape_2" fill-rule="evenodd" clip-rule="evenodd" d="M93.104 26.568C94.616 27.48 96.332 27.936 98.252 27.936C99.596 27.936 100.844 27.69 101.996 27.198C102.882 26.8196 103.626 26.3028 104.228 25.6476V27.504H109.268V0.251953H103.868V9.49833C103.353 8.98752 102.747 8.56339 102.05 8.22595C100.934 7.68595 99.656 7.41595 98.216 7.41595C96.344 7.41595 94.652 7.87195 93.14 8.78395C91.628 9.69595 90.428 10.926 89.54 12.474C88.652 14.022 88.208 15.756 88.208 17.676C88.208 19.572 88.646 21.3 89.522 22.86C90.398 24.42 91.592 25.656 93.104 26.568ZM101.492 22.392C100.748 22.848 99.884 23.076 98.9 23.076C97.916 23.076 97.034 22.848 96.254 22.392C95.474 21.936 94.868 21.3 94.436 20.484C94.004 19.668 93.788 18.732 93.788 17.676C93.788 16.62 94.004 15.69 94.436 14.886C94.868 14.082 95.474 13.446 96.254 12.978C97.034 12.51 97.916 12.276 98.9 12.276C99.884 12.276 100.748 12.504 101.492 12.96C102.236 13.416 102.818 14.052 103.238 14.868C103.658 15.684 103.868 16.62 103.868 17.676C103.868 18.732 103.658 19.668 103.238 20.484C102.818 21.3 102.236 21.936 101.492 22.392Z" fill="#13183F"/>
</g>
</svg>
